# ProBuilder 6.0.4
# https://unity3d.com/unity/features/worldbuilding/probuilder
# 2/13/2026 9:48:41 PM

mtllib ./Small_Plant_1.mtl
o Small Plant 1

g Small Plant 1
v 0.5093367 0.1756271 0.0183067
v 0.6500123 0.6307147 0.0183064
v -0.5494097 0.3569877 0.01830623
v -0.02562578 -0.08163291 0.01830637
v 0.1884693 0.9023218 0.1379937
v -0.4204457 0.8827006 0.1379937
v 0.05432449 0.1802935 0.3836825
v 0.07318655 0.5626383 0.4495334
v 0.06184266 0.2151672 -0.4915338
v 0.04366429 -0.08384693 -0.02182001
v -0.01303298 0.738255 0.04708889
v -0.01384503 0.6582316 -0.4432285

vt 0.1636505 0.6958505
vt 0.1291463 0.7731806
vt 0.369111 0.7868398
vt 0.2788181 0.6661186
vt 0.2027909 0.855159
vt 0.3224078 0.8783405

vn 4.071164E-07 -2.525581E-07 -1
vn -0.03292436 0.3097891 -0.9466894
vn -0.01242083 0.3854662 -0.9226384
vn -0.05342789 0.234112 -0.9707405
vn 0.9987077 -0.05039704 0.006570855
vn 0.9612085 0.2548344 -0.06641751
vn 0.9410331 0.3336456 -0.05601192
vn 0.9813837 0.1760232 -0.0768231

usemtl Foliage
f 4/4/1 3/3/1 2/2/1 1/1/1
f 3/3/4 6/6/2 5/5/3 2/2/2
f 10/4/5 9/3/5 8/2/5 7/1/5
f 9/3/8 12/6/6 11/5/7 8/2/6

