# ProBuilder 6.0.4
# https://unity3d.com/unity/features/worldbuilding/probuilder
# 2/14/2026 3:23:49 PM

mtllib ./Small_Jade.mtl
o Small Jade

g Small Jade
v 0.4954574 0.3140734 0.007879496
v 0.6739269 0.848573 0.007879019
v -0.5635927 0.5115249 0.00787878
v -0.04478511 -0.08003628 0.00787878
v 0.2676415 1.243989 0.1690361
v -0.4359122 1.067758 0.1690357
v 0.06091434 0.3850944 0.6189983
v 0.09529112 0.9035198 0.7502306
v 0.07461647 0.4337513 -0.6534281
v 0.04148572 -0.1112129 -0.07957983
v -0.06184715 1.225595 0.2433813
v -0.06332713 1.025169 -0.415247

vt 0.4185289 0.8987275
vt 0.3985992 0.970758
vt 0.5431671 0.9557099
vt 0.4736319 0.8566294
vt 0.4245454 1.003713
vt 0.4955807 1.005695

vn 6.433037E-07 -1.720163E-07 -1
vn -0.07858344 0.3008752 -0.9503944
vn -0.07700656 0.3074299 -0.9484497
vn -0.08016033 0.2943206 -0.9523391
vn 0.9981371 -0.05983613 0.008460341
vn 0.9976377 -0.06821252 0.008134655
vn 0.9986364 -0.05145975 0.008786027
vn 0.9523233 0.287412 -0.09960929
vn 0.9459035 0.3097964 -0.09639916
vn 0.9587432 0.2650277 -0.1028194

usemtl Foliage
f 4/4/1 3/3/1 2/2/1 1/1/1
f 3/3/4 6/6/2 5/5/3 2/2/2
f 10/4/7 9/3/5 8/2/6 7/1/5
f 9/3/10 12/6/8 11/5/9 8/2/8

