# ProBuilder 6.0.4
# https://unity3d.com/unity/features/worldbuilding/probuilder
# 2/12/2026 10:01:53 PM

mtllib ./Wood_Sorrel_Plant.mtl
o Wood Sorrel Plant

g Wood Sorrel Plant
v 1.2692 0.1899344 1.460908
v 0.8066149 0.1899344 1.072838
v 0.699 0 1.875
v 0.205111 0.1899343 1.125529
v -0.1829588 0.1899343 1.588114
v -0.1302685 0.1899343 2.189618
v 0.3323167 0.1899343 2.577688
v 0.9338206 0.1899343 2.524997
v 1.32189 0.1899344 2.062412

vt 0.411985 0.9454241
vt 0.3906032 0.9948434
vt 0.3246095 0.9305922
vt 0.3220849 1.003111
vt 0.2593746 0.9967635
vt 0.2588611 0.9349481
vt 0.2582802 0.8687294
vt 0.3334557 0.8511462
vt 0.388545 0.880015

vn -0.2266613 0.8662984 0.1113605
vn -0.07292055 0.8738746 0.2107331
vn -0.02119208 0.8999068 -0.008137017
vn 0.08924962 0.879148 0.178629
vn 0.1834247 0.8807058 0.05751066
vn 0.1776933 0.8785667 -0.09689073
vn 0.06224191 0.8727578 -0.218931
vn -0.1231966 0.8652162 -0.2249356
vn -0.2556619 0.8618615 -0.08114923

usemtl Houseplants
f 1/1/1 2/2/2 3/3/3
f 2/2/2 4/4/4 3/3/3
f 4/4/4 5/5/5 3/3/3
f 5/5/5 6/6/6 3/3/3
f 6/6/6 7/7/7 3/3/3
f 7/7/7 8/8/8 3/3/3
f 8/8/8 9/9/9 3/3/3
f 9/9/9 1/1/1 3/3/3

